<svg width="128" height="128" viewBox="0 0 128 128" fill="none" xmlns="http://www.w3.org/2000/svg">
<path d="M127.675 51.6315C127.7 51.5735 127.718 51.5145 127.74 51.4555C127.776 51.3585 127.81 51.2625 127.838 51.1635C127.857 51.0975 127.871 51.0315 127.886 50.9645C127.908 50.8705 127.927 50.7755 127.942 50.6805C127.953 50.6115 127.961 50.5435 127.968 50.4745C127.978 50.3795 127.984 50.2845 127.987 50.1885C127.989 50.1195 127.99 50.0505 127.989 49.9815C127.987 49.8845 127.979 49.7885 127.97 49.6925C127.963 49.6245 127.958 49.5565 127.948 49.4885C127.934 49.3905 127.912 49.2945 127.891 49.1975C127.876 49.1325 127.864 49.0665 127.847 49.0025C127.843 48.9875 127.841 48.9725 127.837 48.9575L114.456 2.88449C113.96 1.17549 112.395 0.000488281 110.616 0.000488281H17.3841C15.6051 0.000488281 14.0401 1.17549 13.5441 2.88449L0.165111 48.9575C0.160111 48.9735 0.158111 48.9895 0.154111 49.0055C0.137111 49.0655 0.126111 49.1275 0.112111 49.1885C0.0891111 49.2895 0.0671111 49.3905 0.0521111 49.4925C0.0431111 49.5565 0.0371111 49.6215 0.0311111 49.6865C0.0211111 49.7865 0.0141111 49.8865 0.0121111 49.9865C0.0111111 50.0525 0.0121111 50.1175 0.0141111 50.1835C0.0171111 50.2825 0.0231111 50.3815 0.0331111 50.4805C0.0401111 50.5465 0.0471111 50.6115 0.0571111 50.6775C0.0721111 50.7765 0.0921111 50.8745 0.115111 50.9725C0.130111 51.0355 0.143111 51.0985 0.161111 51.1615C0.190111 51.2645 0.226111 51.3655 0.264111 51.4655C0.284111 51.5205 0.302111 51.5755 0.324111 51.6295C0.379111 51.7595 0.442111 51.8855 0.511111 52.0095C0.522111 52.0305 0.530111 52.0525 0.542111 52.0725L4.76811 59.3925C6.52211 62.4295 9.04311 64.7865 12.0161 66.2945V124.002C12.0161 126.21 13.8061 128.001 16.0151 128.001H40.0071H64.0001H87.9931H111.986C114.194 128.001 115.985 126.211 115.985 124.002V66.2935C118.958 64.7855 121.479 62.4285 123.233 59.3915L127.459 52.0715C127.475 52.0445 127.485 52.0155 127.5 51.9875C127.563 51.8715 127.623 51.7535 127.675 51.6315ZM118.669 46.0735H100.361L89.3061 7.99849H107.614L118.669 46.0735ZM60.0011 7.99849V46.0735H35.9961H35.9671L47.0231 7.99849H60.0011ZM80.9781 7.99849L92.0341 46.0735H92.0051H67.9991V7.99849H80.9781ZM57.0741 54.0715L56.3111 55.3935C54.5781 58.3965 51.4721 60.1885 48.0051 60.1885C44.5381 60.1885 41.4331 58.3955 39.6991 55.3935L38.9361 54.0715H57.0741ZM89.0641 54.0715L88.3011 55.3935C86.5681 58.3965 83.4621 60.1885 79.9951 60.1885C76.5281 60.1885 73.4231 58.3955 71.6891 55.3935L70.9261 54.0715H89.0641ZM20.3861 7.99849H38.6941L27.6391 46.0735H9.33111L20.3861 7.99849ZM10.9321 54.0715H29.0701L28.3071 55.3935C26.5741 58.3965 23.4681 60.1885 20.0011 60.1885C16.5331 60.1885 13.4281 58.3955 11.6951 55.3935L10.9321 54.0715ZM60.0011 120.002H44.0061V84.1805H60.0011V120.002ZM67.9991 120.002V84.1805H83.9941V120.002H67.9991ZM91.9911 120.002V80.1815C91.9911 77.9735 90.2011 76.1825 87.9921 76.1825H64.0001H40.0071C37.7991 76.1825 36.0081 77.9725 36.0081 80.1815V120.002H20.0141V68.1855C25.6171 68.1815 30.7011 65.6225 34.0031 61.2435C37.3081 65.6255 42.3971 68.1855 48.0051 68.1855C54.3641 68.1855 60.0581 64.8985 63.2371 59.3915L64.0001 58.0705L64.7631 59.3915C67.9421 64.8985 73.6371 68.1855 79.9951 68.1855C85.6041 68.1855 90.6921 65.6255 93.9971 61.2435C97.2991 65.6225 102.383 68.1815 107.986 68.1855V120.003H91.9911V120.002ZM116.306 55.3925C114.573 58.3955 111.467 60.1875 108 60.1875C104.533 60.1875 101.428 58.3945 99.6941 55.3925L98.9311 54.0705H117.069L116.306 55.3925Z" fill="#271827"/>
</svg>
