<svg width="128" height="129" viewBox="0 0 128 129" fill="none" xmlns="http://www.w3.org/2000/svg">
<path d="M125.695 29.0772L65.7008 0.88025C64.6238 0.37325 63.3758 0.37325 62.2988 0.88025L2.30484 29.0772C0.902836 29.7362 0.00683594 31.1463 0.00683594 32.6963C0.00683594 34.2463 0.902836 35.6562 2.30484 36.3153L24.6028 46.7952L14.3148 51.6303C12.9128 52.2893 12.0168 53.6993 12.0168 55.2493V79.7373L4.44084 94.8883C4.16284 95.4433 4.01884 96.0553 4.01884 96.6763V124.501C4.01884 126.709 5.80884 128.5 8.01784 128.5H24.0128C26.2208 128.5 28.0118 126.71 28.0118 124.501V96.6763C28.0118 96.0553 27.8668 95.4433 27.5898 94.8883L20.0148 79.7373V57.7893L28.0118 54.0303V81.6413C28.0118 83.1913 28.9078 84.6013 30.3098 85.2603L62.2998 100.295C62.8388 100.548 63.4198 100.675 64.0008 100.675C64.5818 100.675 65.1628 100.548 65.7018 100.295L97.6918 85.2603C99.0938 84.6013 99.9898 83.1913 99.9898 81.6413V48.3973L125.696 36.3153C127.098 35.6562 127.994 34.2463 127.994 32.6963C127.994 31.1463 127.098 29.7372 125.695 29.0772ZM20.0138 120.502H12.0168V97.6213L16.0158 89.6233L20.0148 97.6213V120.502H20.0138ZM91.9908 79.1022L63.9998 92.2583L36.0088 79.1022V52.1562L62.2988 64.5133C62.8368 64.7663 63.4188 64.8932 63.9998 64.8932C64.5808 64.8932 65.1618 64.7663 65.7008 64.5133L91.9918 52.1562V79.1022H91.9908ZM63.9998 56.4753L43.4038 46.7952L65.7008 36.3153C67.6998 35.3763 68.5578 32.9943 67.6188 30.9953C66.6788 28.9963 64.2968 28.1372 62.2988 29.0772L34.0028 42.3773L13.4058 32.6973L63.9998 8.91825L114.594 32.6973L63.9998 56.4753Z" fill="#271827"/>
</svg>
