<svg width="128" height="128" viewBox="0 0 128 128" fill="none" xmlns="http://www.w3.org/2000/svg">
<path d="M112.865 96.8957L73.5613 80.1067L97.6914 68.7657C99.0934 68.1067 99.9893 66.6967 99.9893 65.1467V53.5307L107.986 57.2897V80.1827C107.986 82.3907 109.776 84.1817 111.985 84.1817C114.193 84.1817 115.984 82.3917 115.984 80.1827V54.7507C115.984 53.2007 115.088 51.7907 113.686 51.1317L103.398 46.2967L125.695 35.8167C127.097 35.1577 127.993 33.7477 127.993 32.1977C127.993 30.6477 127.097 29.2377 125.695 28.5787L65.7013 0.380738C64.6243 -0.126262 63.3763 -0.126262 62.2993 0.380738L2.30535 28.5777C0.903348 29.2367 0.00734766 30.6467 0.00734766 32.1967C0.00734766 33.7467 0.903348 35.1567 2.30535 35.8157L28.0113 47.8977V65.1467C28.0113 66.6967 28.9073 68.1067 30.3093 68.7657L54.2283 80.0077L14.6923 96.8957C6.51735 97.3537 0.00634766 104.148 0.00634766 112.436C0.00734766 121.018 6.99035 128.001 15.5723 128.001C24.1553 128.001 31.1383 121.018 31.1383 112.435C31.1383 107.813 29.1113 103.657 25.9023 100.804L60.0013 86.2387V97.3917C53.3503 99.1617 48.4343 105.234 48.4343 112.435C48.4343 121.018 55.4173 128.001 64.0003 128.001C72.5833 128.001 79.5664 121.018 79.5664 112.435C79.5664 105.234 74.6504 99.1617 67.9994 97.3917V86.4277L101.655 100.804C98.4464 103.657 96.4193 107.813 96.4193 112.435C96.4193 121.018 103.402 128.001 111.985 128.001C120.568 128.001 127.551 121.018 127.551 112.435C127.551 104.147 121.04 97.3537 112.865 96.8957ZM64.0003 8.41874L114.593 32.1977L93.9974 41.8777L65.7013 28.5777C63.7033 27.6377 61.3203 28.4977 60.3813 30.4957C59.4423 32.4947 60.3003 34.8757 62.2993 35.8157L84.5964 46.2957L64.0003 55.9757L13.4063 32.1967L64.0003 8.41874ZM36.0093 51.6567L62.3003 64.0137C62.8383 64.2667 63.4203 64.3937 64.0013 64.3937C64.5823 64.3937 65.1634 64.2667 65.7024 64.0137L91.9923 51.6567V62.6077L64.0003 75.7637L36.0093 62.6077V51.6567ZM15.5723 120.003C11.3993 120.003 8.00435 116.608 8.00435 112.435C8.00435 108.264 11.3963 104.87 15.5663 104.867C15.5693 104.867 15.5713 104.868 15.5743 104.868C15.5773 104.868 15.5793 104.868 15.5823 104.868C19.7513 104.873 23.1403 108.266 23.1403 112.436C23.1413 116.608 19.7463 120.003 15.5723 120.003ZM71.5684 112.435C71.5684 116.608 68.1733 120.003 64.0003 120.003C59.8273 120.003 56.4323 116.608 56.4323 112.435C56.4323 108.262 59.8273 104.867 64.0003 104.867C68.1733 104.867 71.5684 108.262 71.5684 112.435ZM111.985 120.003C107.812 120.003 104.417 116.608 104.417 112.435C104.417 108.265 107.807 104.873 111.975 104.867C111.978 104.867 111.98 104.867 111.983 104.867C111.986 104.867 111.988 104.866 111.991 104.866C116.161 104.869 119.553 108.263 119.553 112.434C119.553 116.608 116.158 120.003 111.985 120.003Z" fill="#271827"/>
</svg>
